<?xml version="1.0" standalone="no"?>
<!DOCTYPE svg PUBLIC "-//W3C//DTD SVG 20010904//EN"
 "http://www.w3.org/TR/2001/REC-SVG-20010904/DTD/svg10.dtd">
<svg version="1.0" xmlns="http://www.w3.org/2000/svg"
 width="700.000000pt" height="700.000000pt" viewBox="0 0 700.000000 700.000000"
 preserveAspectRatio="xMidYMid meet">
<metadata>
Created by potrace 1.14, written by Peter Selinger 2001-2017
</metadata>
<g transform="translate(0.000000,700.000000) scale(0.100000,-0.100000)"
fill="#000000" stroke="none">
<path d="M0 3500 l0 -3500 3500 0 3500 0 0 3500 0 3500 -3500 0 -3500 0 0
-3500z m6826 2225 c12 -30 14 -338 14 -2249 0 -1660 -3 -2221 -12 -2241 l-11
-25 -3319 0 c-2269 0 -3325 3 -3339 10 -19 11 -19 46 -19 2260 0 1788 3 2250
13 2257 13 8 1914 17 4875 21 l1783 2 15 -35z"/>
<path d="M3295 4989 c-66 -4 -158 -13 -205 -19 -196 -26 -297 -41 -330 -50
-19 -5 -53 -12 -75 -15 -22 -3 -53 -10 -70 -15 -16 -4 -57 -16 -90 -25 -33 -9
-85 -24 -115 -32 -30 -9 -63 -19 -72 -24 -10 -5 -24 -9 -32 -9 -7 0 -49 -14
-92 -31 -146 -57 -170 -67 -284 -123 -84 -41 -141 -72 -295 -156 -51 -29 -195
-131 -261 -187 -182 -151 -321 -341 -374 -508 -7 -22 -19 -54 -27 -72 -7 -17
-13 -53 -13 -80 0 -27 -5 -54 -11 -60 -12 -12 -7 -209 8 -288 23 -121 102
-290 192 -410 49 -64 248 -248 321 -296 92 -61 328 -199 340 -199 4 0 45 -17
91 -39 121 -56 409 -151 459 -151 14 -1 36 -7 50 -15 14 -8 40 -14 58 -15 18
0 40 -4 50 -9 21 -11 131 -30 234 -41 42 -4 82 -11 88 -15 21 -13 288 -27 595
-32 287 -4 445 2 645 28 47 6 119 15 160 20 41 4 113 15 160 24 47 9 110 19
140 24 30 4 75 13 100 19 25 7 101 26 170 42 69 17 139 35 155 40 108 35 205
60 227 60 15 0 82 -26 150 -59 68 -32 150 -71 183 -86 33 -15 102 -47 153 -72
51 -25 99 -42 107 -39 13 5 15 64 15 424 0 387 1 420 18 434 9 8 52 37 95 64
43 27 89 56 102 64 13 8 52 33 87 54 35 22 122 78 193 125 72 47 137 89 145
93 8 4 67 43 130 85 104 71 115 81 118 111 7 67 142 62 -1642 62 -942 0 -1627
-4 -1635 -9 -12 -8 -12 -13 3 -35 9 -14 21 -26 26 -26 5 0 38 -17 72 -38 35
-21 70 -42 78 -46 16 -7 24 -12 116 -68 34 -21 67 -38 73 -38 6 0 11 -4 11
-10 0 -5 4 -10 10 -10 5 0 43 -20 83 -45 41 -25 77 -45 81 -45 3 0 30 -16 61
-35 30 -20 63 -39 73 -42 9 -4 44 -24 78 -45 34 -21 65 -38 69 -38 5 0 16 -6
24 -14 9 -7 44 -29 79 -47 136 -73 132 -69 132 -140 l0 -59 -55 -35 c-30 -19
-60 -35 -67 -35 -8 0 -22 -6 -33 -13 -42 -29 -244 -83 -396 -107 -92 -14 -424
-12 -544 4 -119 16 -271 56 -352 92 -107 48 -217 129 -274 201 -30 38 -60 77
-66 88 -25 41 -73 147 -73 161 0 9 -5 25 -11 36 -30 56 -47 327 -29 458 11 83
34 185 50 225 5 11 12 31 16 45 4 14 9 27 13 30 3 3 15 23 26 45 11 22 22 42
25 45 4 3 16 21 27 40 30 49 135 151 212 205 36 25 69 45 73 45 5 0 26 11 48
25 22 14 48 25 58 25 10 0 23 5 29 11 6 6 29 15 50 20 21 5 67 16 103 25 75
20 417 33 565 22 153 -11 341 -40 416 -64 26 -7 58 -14 72 -14 14 0 36 -4 49
-9 13 -5 50 -17 83 -26 76 -22 141 -44 182 -61 17 -8 38 -14 46 -14 9 0 19 -4
22 -10 3 -5 12 -10 20 -10 7 0 44 -14 82 -31 37 -17 84 -38 103 -46 211 -93
586 -321 710 -432 23 -20 44 -30 60 -29 l25 3 0 590 0 590 -22 3 c-12 2 -39
-7 -60 -20 -21 -13 -56 -32 -78 -43 -22 -11 -41 -23 -43 -27 -2 -5 -8 -8 -14
-8 -5 0 -52 -24 -103 -54 -52 -30 -115 -64 -139 -76 l-46 -22 -37 20 c-71 37
-204 94 -268 117 -27 9 -57 20 -65 24 -8 4 -42 16 -75 25 -33 10 -71 22 -84
28 -14 5 -43 13 -65 18 -23 5 -72 17 -111 25 -361 83 -806 113 -1240 84z"/>
<path d="M5020 1340 c-337 -5 -287 -6 343 -8 486 -1 737 1 737 8 0 10 -315 10
-1080 0z"/>
</g>
</svg>
