<?xml version="1.0" standalone="no"?>
<!DOCTYPE svg PUBLIC "-//W3C//DTD SVG 20010904//EN"
 "http://www.w3.org/TR/2001/REC-SVG-20010904/DTD/svg10.dtd">
<svg version="1.0" xmlns="http://www.w3.org/2000/svg"
 width="750.000000pt" height="750.000000pt" viewBox="0 0 750.000000 750.000000"
 preserveAspectRatio="xMidYMid meet">
<metadata>
Created by potrace 1.14, written by Peter Selinger 2001-2017
</metadata>
<g transform="translate(0.000000,750.000000) scale(0.100000,-0.100000)"
fill="#000000" stroke="none">
<path d="M3675 7318 c-27 -4 -122 -16 -210 -28 -178 -23 -244 -35 -293 -56
-18 -8 -43 -14 -55 -14 -12 0 -71 -16 -130 -35 -59 -19 -113 -35 -119 -35 -6
0 -29 -9 -52 -19 -23 -11 -84 -32 -136 -47 -99 -29 -429 -185 -514 -244 -26
-17 -63 -36 -82 -42 -19 -5 -50 -25 -69 -43 -19 -19 -60 -46 -91 -60 -81 -36
-334 -224 -378 -281 -10 -14 -32 -32 -49 -41 -76 -39 -323 -296 -410 -426 -15
-23 -45 -60 -66 -82 -40 -42 -165 -224 -238 -348 -53 -89 -255 -534 -290 -636
-14 -42 -29 -81 -34 -87 -5 -6 -16 -46 -24 -90 -21 -109 -57 -209 -75 -209
-34 0 -54 111 -28 158 7 12 15 45 19 72 13 87 28 146 48 183 10 21 25 64 32
97 7 33 18 71 25 85 18 35 55 162 49 168 -5 5 -66 -124 -80 -168 -4 -14 -21
-56 -37 -95 -20 -44 -34 -99 -40 -149 -5 -44 -17 -94 -27 -111 -16 -27 -23
-67 -37 -194 -2 -19 -8 -39 -14 -45 -5 -5 -10 -24 -10 -40 0 -34 -37 -116 -71
-157 -21 -26 -25 -48 -60 -314 -5 -44 -22 -141 -36 -215 -15 -74 -28 -170 -31
-213 -3 -66 0 -82 19 -113 19 -31 21 -46 17 -110 -3 -46 -1 -80 6 -89 8 -12
12 18 14 117 3 159 11 260 22 278 13 20 55 4 69 -27 7 -15 21 -95 31 -178 22
-176 20 -344 -4 -428 -26 -95 -22 -160 16 -218 30 -47 33 -49 43 -29 11 20 12
20 27 3 24 -26 55 -103 84 -207 13 -50 34 -112 44 -138 11 -26 20 -56 20 -66
0 -33 43 -98 62 -94 9 2 35 -15 58 -37 l43 -41 -7 -87 c-3 -49 -9 -99 -12
-113 -4 -19 6 -40 43 -90 57 -77 76 -82 144 -45 30 16 57 24 69 20 11 -3 30 1
45 11 14 9 25 13 25 10 0 -4 8 -2 19 3 11 6 21 26 25 51 9 58 52 139 93 177
31 29 34 37 29 65 -3 18 -10 65 -15 103 -5 39 -15 84 -22 101 -18 45 2 91 45
102 38 10 42 28 25 100 -13 57 -6 84 23 90 11 2 19 -12 28 -45 7 -26 22 -58
33 -70 10 -12 16 -26 13 -31 -12 -19 6 -70 26 -75 16 -5 17 -8 7 -25 -17 -27
8 -107 38 -128 18 -11 22 -20 17 -39 -5 -21 -3 -25 15 -25 23 0 27 -10 9 -28
-9 -9 -5 -18 16 -39 20 -19 26 -33 21 -50 -4 -17 -1 -23 10 -23 12 0 15 -6 10
-20 -4 -13 -1 -22 9 -26 9 -3 14 -10 11 -14 -5 -8 32 -91 45 -100 3 -3 15 -21
26 -40 10 -19 27 -42 37 -51 9 -9 17 -21 17 -26 0 -15 26 -63 64 -118 19 -27
50 -75 68 -105 18 -30 49 -71 70 -92 21 -21 38 -41 38 -46 0 -4 38 -47 85 -97
47 -49 101 -113 120 -142 19 -29 52 -64 74 -78 47 -29 56 -44 66 -105 6 -38
18 -55 70 -105 35 -33 74 -80 88 -105 15 -27 45 -58 73 -77 27 -18 72 -49 99
-69 58 -43 417 -219 490 -241 104 -32 395 -88 505 -98 41 -4 90 -13 109 -21
49 -20 213 -27 356 -15 375 32 529 51 610 75 28 8 79 20 115 26 36 6 74 15 85
20 32 12 109 29 114 24 6 -6 -66 -34 -89 -34 -11 0 -43 -12 -72 -27 -47 -25
-49 -27 -28 -35 30 -11 17 -24 -40 -39 -69 -17 -140 -23 -140 -10 0 6 10 11
23 11 24 0 54 16 46 24 -4 5 -97 -15 -139 -30 -12 -4 -12 -6 0 -14 10 -6 5
-13 -23 -26 -21 -10 -36 -23 -34 -28 10 -30 116 -26 259 10 32 8 69 14 83 14
36 0 211 58 225 75 17 21 131 72 248 111 172 57 368 145 420 188 15 12 45 35
67 49 33 23 36 27 17 27 -15 0 -22 6 -22 20 0 15 7 20 25 20 15 0 25 -6 25
-15 0 -24 41 -4 170 85 319 219 344 240 658 563 78 80 142 151 142 156 0 5 23
36 51 68 29 32 60 77 71 101 11 24 41 68 68 97 27 30 54 64 61 77 7 13 29 46
49 73 20 28 51 86 69 129 29 69 31 82 20 103 -11 20 -10 26 8 46 15 16 20 30
16 50 -4 20 5 51 32 108 22 47 40 104 45 142 4 34 13 76 20 92 45 114 150 517
160 610 4 44 14 134 21 200 17 144 15 290 -3 313 -9 10 -13 53 -14 131 -2 130
-20 454 -29 516 -20 134 -75 371 -102 445 -14 36 -40 108 -58 160 -18 52 -47
127 -64 167 -17 40 -31 81 -31 93 0 11 -11 42 -24 68 -13 26 -27 58 -31 72 -4
14 -18 39 -30 55 -12 17 -35 59 -51 95 -16 36 -45 95 -66 132 -29 51 -36 74
-32 96 5 23 0 36 -25 64 -17 19 -40 55 -51 79 -27 59 -76 137 -111 177 -16 17
-51 65 -78 105 -54 78 -84 109 -176 183 -33 26 -76 63 -96 81 -44 41 -177 143
-185 143 -4 0 -29 20 -55 45 -26 25 -55 45 -63 45 -8 0 -45 21 -82 46 -37 25
-81 51 -98 57 -17 6 -52 25 -78 42 -26 18 -59 36 -74 39 -15 4 -39 15 -53 25
-14 10 -62 33 -106 50 -44 18 -102 46 -129 62 -26 17 -70 39 -97 50 -27 10
-60 25 -72 33 -12 8 -45 21 -73 29 -28 8 -73 27 -100 41 -27 15 -65 26 -86 26
-20 0 -67 6 -105 14 -37 8 -133 22 -213 30 -80 9 -165 21 -190 26 -25 5 -61
12 -80 15 -19 3 -50 10 -68 15 -21 5 -79 4 -152 -2 -89 -9 -132 -9 -172 0 -66
14 -217 20 -283 10z m620 -708 c50 -6 110 -17 135 -25 25 -7 74 -17 110 -20
69 -8 351 -85 399 -109 15 -8 34 -22 41 -31 12 -14 12 -18 -1 -26 -25 -16 -64
-10 -184 27 l-117 37 -22 -28 c-21 -26 -26 -28 -67 -21 -24 4 -63 13 -86 21
-23 8 -122 24 -220 35 -202 23 -238 31 -238 51 0 10 19 17 63 22 61 9 63 10
42 24 -17 12 -45 15 -123 12 -164 -5 -207 -1 -214 17 -3 9 0 20 8 26 16 11
339 3 474 -12z m-322 -61 c73 -20 35 -65 -52 -61 -138 7 -227 6 -241 -1 -9 -4
-24 -2 -35 6 -18 14 -18 15 2 25 11 6 60 13 109 16 50 3 101 10 115 15 32 13
56 13 102 0z m-653 -179 c-20 -13 -40 -13 -40 0 0 6 12 10 28 10 21 0 24 -2
12 -10z m-160 -40 c0 -5 -4 -10 -10 -10 -5 0 -10 5 -10 10 0 6 5 10 10 10 6 0
10 -4 10 -10z m910 -251 c129 -44 237 -138 294 -255 36 -72 45 -106 58 -209
29 -243 -34 -493 -174 -686 -26 -37 -48 -74 -48 -83 0 -11 21 -26 58 -42 158
-70 327 -206 414 -332 95 -139 138 -300 138 -523 0 -118 -3 -144 -26 -214 -15
-44 -30 -84 -35 -89 -5 -6 -9 -16 -9 -24 0 -25 -87 -146 -132 -183 -139 -114
-258 -159 -481 -183 -75 -8 -151 10 -204 48 -27 19 -79 48 -115 64 -69 32 -78
43 -78 100 0 21 -11 54 -25 77 -30 49 -31 84 -4 155 11 30 23 91 26 135 3 45
13 96 22 115 15 33 19 35 73 38 l57 3 5 -33 c3 -18 7 -69 10 -113 12 -171 49
-267 114 -294 26 -11 60 -6 212 28 68 15 106 39 162 99 73 79 89 128 95 289 4
99 2 134 -13 180 -35 114 -66 165 -149 246 -67 66 -99 88 -200 138 -65 32
-126 59 -135 59 -8 0 -27 8 -40 17 -32 23 -143 22 -185 0 -16 -9 -35 -17 -41
-17 -10 0 -68 -26 -173 -78 -84 -42 -202 -162 -245 -252 -20 -40 -36 -80 -36
-89 0 -9 -7 -34 -15 -56 -20 -57 -19 -179 2 -215 14 -24 15 -34 5 -55 -7 -14
-12 -37 -12 -50 0 -32 19 -111 36 -152 8 -17 14 -38 14 -46 0 -9 4 -18 9 -21
4 -3 20 -40 35 -82 50 -141 238 -416 392 -574 43 -44 81 -94 93 -122 11 -26
30 -52 43 -59 13 -6 42 -29 65 -50 40 -37 61 -45 108 -40 10 1 91 37 180 80
344 170 380 184 610 241 28 7 141 15 252 18 169 4 211 2 252 -12 27 -9 57 -16
66 -16 22 0 118 -31 130 -41 5 -5 17 -9 27 -9 10 0 18 -5 18 -11 0 -5 21 -19
47 -31 69 -31 243 -207 277 -281 51 -112 57 -184 25 -280 -57 -169 -213 -311
-404 -370 -122 -37 -170 -42 -362 -41 -192 2 -246 10 -378 55 -16 6 -44 14
-60 18 -17 4 -39 13 -50 19 -11 6 -51 25 -90 42 -38 18 -81 43 -95 55 -26 24
-88 61 -195 117 -33 17 -80 48 -104 69 -45 40 -90 50 -129 30 -37 -20 -86 -41
-96 -41 -21 0 -145 -52 -156 -65 -16 -20 -2 -59 44 -121 77 -106 94 -130 111
-163 17 -34 17 -34 -5 -28 -13 3 -23 0 -27 -9 -9 -25 -34 -15 -93 39 -32 30
-79 64 -105 76 -27 12 -75 48 -107 79 l-59 56 -37 -13 c-20 -8 -68 -28 -107
-46 -38 -18 -95 -40 -125 -50 -30 -10 -70 -24 -88 -31 -18 -8 -42 -14 -53 -14
-11 0 -32 -6 -47 -14 -15 -7 -119 -26 -232 -41 -159 -21 -230 -26 -318 -22
-106 4 -112 3 -107 -14 7 -22 -20 -28 -28 -6 -3 9 -9 8 -21 -4 -20 -19 -11
-49 15 -49 24 0 24 -8 0 -39 -13 -17 -24 -22 -37 -17 -18 7 -17 9 6 22 l25 14
-30 -6 c-16 -4 -32 -11 -33 -16 -2 -5 -10 -3 -18 3 -12 10 -11 14 8 23 13 6
25 23 26 36 2 14 8 29 13 35 16 16 10 35 -11 35 -11 0 -19 -6 -17 -12 1 -7 -8
-14 -19 -16 -15 -2 -23 3 -27 18 -3 12 -10 19 -15 16 -14 -9 -42 4 -42 19 0
18 -32 28 -42 13 -4 -7 -6 -19 -3 -25 2 -7 -3 -16 -11 -21 -20 -11 -7 -42 18
-42 15 0 18 -5 14 -16 -8 -22 11 -44 38 -44 33 0 33 -63 1 -84 -12 -8 -25 -12
-29 -9 -12 12 -6 43 9 43 12 0 13 4 3 25 -14 31 -37 32 -67 4 -17 -16 -20 -24
-11 -33 8 -8 13 -7 20 4 5 8 12 11 17 7 4 -5 2 -12 -5 -16 -7 -4 -10 -15 -6
-24 3 -10 1 -17 -6 -17 -18 0 -40 27 -40 50 0 12 -7 28 -15 37 -10 9 -13 23
-9 35 8 25 -15 20 -30 -6 -8 -14 -8 -20 2 -23 18 -7 42 -32 42 -45 0 -6 -9 -8
-22 -3 -13 3 -40 6 -61 5 -36 -1 -38 1 -31 22 4 13 15 30 25 39 25 22 24 26
-10 31 -20 3 -28 0 -27 -10 1 -8 -5 -17 -13 -20 -10 -3 -12 2 -7 21 5 20 1 29
-13 37 -30 15 -41 12 -38 -11 2 -21 -26 -49 -38 -37 -11 10 26 78 42 78 9 0
12 6 9 18 -7 21 28 42 69 42 23 0 25 -4 25 -45 0 -46 13 -58 39 -32 10 10 14
9 22 -5 8 -14 14 -15 34 -6 32 14 32 28 0 29 -14 1 -29 2 -34 3 -12 1 -55 56
-45 56 5 0 3 5 -4 12 -15 15 -16 55 0 64 8 5 7 10 -4 18 -8 6 -17 19 -21 29
-17 46 -59 24 -72 -38 -11 -54 -17 -66 -27 -63 -10 4 -48 102 -48 124 0 16 44
34 69 27 12 -3 21 -3 21 -1 0 14 -33 68 -41 68 -6 0 -8 9 -4 19 4 14 0 21 -15
26 -19 6 -26 30 -22 77 1 10 -4 18 -11 18 -19 0 -28 -11 -19 -24 9 -14 9 -76
0 -76 -4 0 -15 13 -25 30 -24 41 -38 38 -40 -10 -2 -29 2 -40 13 -40 7 0 14
-7 14 -16 0 -11 6 -14 20 -9 15 5 20 2 20 -14 0 -17 -6 -20 -40 -18 -36 1 -39
3 -34 24 5 17 2 23 -10 23 -9 0 -16 -8 -16 -20 0 -11 -4 -20 -8 -20 -11 0 -52
47 -52 60 0 6 -7 10 -15 10 -8 0 -15 5 -15 10 0 6 7 10 15 10 8 0 15 -4 15
-10 0 -16 50 -11 57 5 3 9 -3 25 -13 36 -17 19 -18 21 -1 30 30 17 18 27 -28
21 -37 -4 -45 -2 -45 11 0 10 -6 14 -15 11 -8 -4 -15 -3 -15 1 0 13 29 35 42
33 8 -2 12 6 10 20 -1 17 4 25 18 29 11 3 20 8 20 12 0 3 3 17 7 31 6 25 6 25
-15 6 -12 -11 -22 -14 -22 -8 0 7 -5 12 -11 12 -6 0 -8 -9 -4 -20 8 -25 -13
-27 -22 -2 -7 19 -41 52 -54 52 -5 0 -13 10 -20 21 -9 17 -8 23 2 30 11 7 7
14 -16 33 l-30 24 28 11 c16 6 35 11 43 11 21 0 17 27 -6 33 -25 6 -26 27 -2
27 10 0 24 6 30 12 9 9 15 10 20 2 4 -6 15 -14 26 -17 18 -7 17 -8 -4 -27 -33
-29 -16 -38 20 -11 26 19 31 20 36 6 5 -11 13 -13 28 -9 11 4 37 8 56 8 19 1
35 6 35 11 0 6 -9 9 -20 7 -11 -1 -27 7 -37 20 -15 19 -18 20 -18 6 0 -10 -4
-18 -10 -18 -5 0 -10 7 -10 15 0 8 -9 15 -20 15 -11 0 -20 5 -20 11 0 6 -6 9
-12 6 -50 -20 -49 -20 -45 4 9 55 37 82 37 37 l0 -23 20 25 c20 25 20 25 20 3
0 -13 -4 -23 -10 -23 -5 0 -10 -4 -10 -10 0 -15 32 -12 54 5 18 14 18 15 -5
33 -21 18 -22 21 -7 36 18 18 58 22 58 6 0 -5 -9 -10 -20 -10 -23 0 -26 -10
-8 -28 16 -16 45 -15 51 1 2 6 8 8 13 4 5 -4 2 -12 -6 -18 -12 -7 -12 -11 -2
-17 7 -5 10 -16 6 -25 -3 -10 -1 -18 5 -18 36 -4 51 -16 51 -40 0 -30 16 -23
57 26 20 25 45 45 55 45 24 0 31 16 18 41 -15 27 -11 29 41 33 53 3 126 32
138 55 5 9 18 17 28 18 10 1 31 6 47 12 22 9 27 16 23 34 -6 21 -5 21 8 3 12
-16 22 -18 62 -12 26 4 71 10 98 12 28 2 63 6 78 9 34 6 213 -11 282 -27 28
-6 79 -25 115 -43 36 -18 90 -43 120 -56 94 -40 249 -156 377 -280 110 -108
125 -119 158 -119 37 0 130 53 123 70 -6 15 -91 81 -130 101 -126 64 -341 286
-503 519 -27 40 -156 292 -175 345 -70 187 -90 293 -90 474 0 202 29 351 96
487 40 81 61 111 138 188 72 73 219 186 241 186 10 0 125 72 125 78 0 4 -16
30 -34 57 -48 69 -106 189 -125 255 -21 76 -20 294 1 375 24 88 58 174 90 225
36 57 136 161 191 198 43 29 172 86 217 95 59 13 225 -1 290 -24z m-2952
-3029 c14 -106 13 -172 -4 -177 -24 -8 -55 33 -68 92 -28 122 -28 130 -5 159
14 17 29 26 43 24 19 -3 22 -13 34 -98z m1288 39 c3 -6 1 -16 -5 -22 -9 -9
-14 -8 -21 3 -9 15 -4 30 10 30 5 0 12 -5 16 -11z m-98 -58 c-5 -24 -38 -27
-38 -3 0 10 3 21 6 25 11 11 35 -5 32 -22z m215 11 c47 -8 35 -26 -26 -37 -37
-7 -37 -7 -37 25 0 27 3 31 18 25 9 -4 29 -10 45 -13z m-293 -52 c25 -25 25
-30 0 -30 -22 0 -70 20 -70 30 0 26 44 26 70 0z m-1268 -51 c26 -14 31 -50 18
-112 -24 -118 -87 -92 -108 44 -12 82 -7 92 36 84 20 -4 45 -11 54 -16z m1008
-64 c11 -13 10 -47 -4 -95 -3 -8 -5 -17 -5 -19 -1 -3 -12 6 -25 18 -14 13 -29
20 -35 16 -6 -3 -16 -3 -21 0 -16 10 8 35 31 35 14 0 21 9 26 30 6 33 15 37
33 15z m-325 -105 c-3 -5 -10 -10 -16 -10 -5 0 -9 5 -9 10 0 6 7 10 16 10 8 0
12 -4 9 -10z m-45 -19 c0 -5 -7 -12 -16 -15 -14 -5 -15 -4 -4 9 14 17 20 19
20 6z m-174 -190 c-12 -19 -24 -12 -19 10 4 13 9 17 15 11 6 -6 7 -15 4 -21z
m129 19 c3 -5 1 -10 -4 -10 -6 0 -11 5 -11 10 0 6 2 10 4 10 3 0 8 -4 11 -10z
m-45 -38 c14 0 39 -5 55 -12 l30 -12 -27 -22 c-29 -23 -37 -61 -15 -69 23 -8
2 -15 -28 -9 -25 6 -30 12 -30 36 0 16 -6 31 -12 34 -7 2 -13 -3 -13 -12 0
-20 -27 -21 -46 -2 -19 19 -18 21 7 23 28 2 35 11 22 24 -17 17 -5 40 15 30
10 -5 28 -9 42 -9z m143 -109 c9 -9 -22 -43 -40 -43 -16 0 -17 22 -1 38 13 13
31 16 41 5z m-69 -58 c-4 -8 -11 -12 -16 -9 -6 4 -5 10 3 15 19 12 19 11 13
-6z m-184 -65 c0 -5 -4 -10 -10 -10 -5 0 -10 5 -10 10 0 6 5 10 10 10 6 0 10
-4 10 -10z m320 -26 c0 -16 -16 -19 -25 -4 -4 6 -11 8 -16 5 -5 -4 -9 -2 -9 4
0 12 21 20 38 13 6 -2 12 -10 12 -18z m-47 -70 c8 -8 -13 -64 -24 -64 -5 0 -9
16 -9 35 0 32 15 46 33 29z m37 -144 c0 -5 -7 -10 -16 -10 -8 0 -12 5 -9 10 3
6 10 10 16 10 5 0 9 -4 9 -10z m-216 -46 c23 -23 20 -39 -9 -40 -14 -1 -25 2
-25 7 0 5 7 9 15 9 8 0 15 5 15 10 0 6 -4 10 -10 10 -5 0 -10 5 -10 10 0 14 6
13 24 -6z m526 -34 c0 -5 -4 -10 -10 -10 -5 0 -10 5 -10 10 0 6 5 10 10 10 6
0 10 -4 10 -10z m-125 -60 c-3 -5 -13 -10 -21 -10 -8 0 -14 5 -14 10 0 6 9 10
21 10 11 0 17 -4 14 -10z m-80 -20 c-3 -5 -13 -10 -21 -10 -8 0 -14 5 -14 10
0 6 9 10 21 10 11 0 17 -4 14 -10z m-95 -25 c0 -27 -18 -33 -38 -13 -17 17
-15 29 3 22 8 -4 15 -1 15 5 0 6 5 11 10 11 6 0 10 -11 10 -25z m160 -14 c0
-11 -29 -35 -35 -29 -10 9 7 38 21 38 8 0 14 -4 14 -9z m-180 -40 c0 -5 -7
-11 -15 -15 -9 -3 -15 0 -15 9 0 8 7 15 15 15 8 0 15 -4 15 -9z m260 -16 c0
-8 -4 -15 -9 -15 -13 0 -22 16 -14 24 11 11 23 6 23 -9z m-80 -10 c0 -8 -4
-15 -10 -15 -5 0 -10 7 -10 15 0 8 5 15 10 15 6 0 10 -7 10 -15z m1040 -9 c0
-3 -4 -8 -10 -11 -5 -3 -10 -1 -10 4 0 6 5 11 10 11 6 0 10 -2 10 -4z m-558
-76 c9 0 18 -6 21 -14 6 -16 -16 -40 -27 -29 -4 4 -16 8 -26 8 -11 0 -20 3
-20 8 -1 61 -1 61 18 44 10 -10 26 -17 34 -17z m-279 -14 c4 -9 -2 -17 -14
-21 -27 -9 -34 0 -18 19 18 19 25 20 32 2z m57 -6 c0 -13 -7 -20 -20 -20 -18
0 -19 2 -8 20 7 11 16 20 20 20 5 0 8 -9 8 -20z m303 6 c9 -7 17 -17 17 -22 0
-4 -5 -3 -12 4 -7 7 -20 12 -30 12 -10 0 -18 5 -18 10 0 14 22 12 43 -4z
m-219 -22 c4 -10 1 -14 -6 -12 -15 5 -23 28 -10 28 5 0 13 -7 16 -16z m-44
-29 c0 -14 5 -17 40 -19 9 -1 15 -14 15 -39 1 -26 10 -46 28 -65 32 -33 35
-52 8 -52 -13 0 -20 9 -24 30 -5 21 -12 30 -27 30 -11 0 -20 -4 -20 -10 0 -5
-4 -10 -10 -10 -5 0 -10 7 -10 16 0 9 -6 14 -12 11 -7 -2 -12 -14 -11 -26 2
-11 -2 -21 -7 -21 -19 0 -10 49 10 60 22 12 29 73 10 85 -5 3 -10 10 -10 16 0
5 5 9 10 9 6 0 10 -7 10 -15z m-100 -5 c0 -5 -4 -10 -10 -10 -5 0 -10 5 -10
10 0 6 5 10 10 10 6 0 10 -4 10 -10z m-100 -20 c12 -8 11 -10 -7 -10 -13 0
-23 5 -23 10 0 13 11 13 30 0z m70 -15 c0 -8 -5 -15 -11 -15 -6 0 -17 7 -25
15 -14 13 -13 15 10 15 16 0 26 -6 26 -15z m70 -25 c0 -10 -4 -22 -10 -25 -6
-4 -10 7 -10 25 0 18 4 29 10 25 6 -3 10 -15 10 -25z m435 -11 c4 -6 -2 -13
-14 -16 -24 -6 -28 -23 -6 -23 23 0 18 -17 -7 -24 -35 -9 -43 9 -19 43 24 33
36 38 46 20z m-189 -13 c18 -19 18 -26 -1 -26 -8 0 -15 2 -15 4 0 2 -3 11 -6
20 -8 20 3 21 22 2z m104 4 c0 -5 -7 -10 -15 -10 -8 0 -15 5 -15 10 0 6 7 10
15 10 8 0 15 -4 15 -10z m160 -30 c6 0 10 -4 10 -10 0 -16 -32 -11 -46 8 -22
29 -17 49 6 24 12 -12 25 -22 30 -22z m-672 -1 c-2 -6 -8 -10 -13 -10 -5 0
-11 4 -13 10 -2 6 4 11 13 11 9 0 15 -5 13 -11z m82 1 c0 -5 -2 -10 -4 -10 -3
0 -8 5 -11 10 -3 6 -1 10 4 10 6 0 11 -4 11 -10z m668 -2 c5 -7 6 -22 2 -32
-4 -14 -9 -16 -14 -8 -4 7 -4 17 0 23 3 6 0 15 -7 20 -8 5 -9 9 -3 9 6 0 16
-6 22 -12z m-580 -10 c-5 -15 -35 -34 -43 -27 -3 4 -3 14 1 23 7 18 48 23 42
4z m272 -25 c0 -12 -7 -13 -27 -8 -33 8 -37 11 -29 23 9 14 56 2 56 -15z m180
-12 c0 -12 -28 -22 -34 -12 -3 5 -3 11 1 15 9 9 33 7 33 -3z m-580 -15 c0 -2
-7 -7 -16 -10 -8 -3 -12 -2 -9 4 6 10 25 14 25 6z m120 -6 c0 -5 -4 -10 -10
-10 -5 0 -10 5 -10 10 0 6 5 10 10 10 6 0 10 -4 10 -10z m560 0 c0 -5 -4 -10
-10 -10 -5 0 -10 5 -10 10 0 6 5 10 10 10 6 0 10 -4 10 -10z m20 -90 c0 -13
-28 -25 -38 -16 -3 4 0 11 8 16 20 13 30 12 30 0z m84 -6 c5 -14 4 -15 -9 -4
-17 14 -19 20 -6 20 5 0 12 -7 15 -16z m-44 -44 c0 -5 -5 -10 -11 -10 -5 0 -7
5 -4 10 3 6 8 10 11 10 2 0 4 -4 4 -10z m-105 -30 c7 -12 -2 -12 -30 0 -19 8
-19 9 2 9 12 1 25 -3 28 -9z m-45 -50 c0 -5 -7 -10 -15 -10 -8 0 -15 5 -15 10
0 6 7 10 15 10 8 0 15 -4 15 -10z m44 -42 c-3 -5 -12 -1 -20 9 -20 27 -17 39
6 18 11 -10 17 -22 14 -27z"/>
<path d="M4228 6543 c7 -3 16 -2 19 1 4 3 -2 6 -13 5 -11 0 -14 -3 -6 -6z"/>
<path d="M4420 6530 c-28 -18 6 -33 86 -38 88 -6 93 6 15 32 -57 18 -80 20
-101 6z"/>
<path d="M3794 5770 c-75 -35 -136 -119 -169 -235 -28 -93 -16 -228 26 -313
31 -63 133 -182 156 -182 16 0 129 77 163 112 17 17 56 74 88 127 l57 96 -2
100 c-2 157 -48 256 -138 296 -52 24 -129 23 -181 -1z"/>
<path d="M3764 3695 c-15 -23 -15 -27 0 -50 22 -33 56 -34 56 0 0 28 -20 75
-31 75 -5 0 -16 -11 -25 -25z"/>
<path d="M4073 3413 c9 -2 25 -2 35 0 9 3 1 5 -18 5 -19 0 -27 -2 -17 -5z"/>
<path d="M4904 2654 c-99 -21 -202 -59 -315 -113 -58 -28 -109 -51 -113 -51
-12 0 -86 -53 -86 -61 0 -5 16 -9 35 -9 26 0 44 -8 68 -31 39 -38 76 -54 91
-39 18 18 51 11 162 -36 60 -26 127 -51 149 -56 184 -43 422 -51 520 -17 64
23 116 56 152 98 33 38 31 110 -3 150 -56 67 -160 122 -309 162 -83 22 -256
24 -351 3z"/>
<path d="M1715 2630 c-4 -6 -22 -9 -41 -8 -37 2 -54 -12 -54 -44 0 -10 -4 -18
-10 -18 -18 0 -10 -15 14 -26 30 -14 56 4 56 37 -1 22 -2 23 -14 7 -20 -26
-40 -24 -26 3 9 16 18 19 37 14 25 -6 63 16 63 37 0 11 -18 10 -25 -2z"/>
<path d="M1815 2630 c4 -6 11 -8 16 -5 14 9 11 15 -7 15 -8 0 -12 -5 -9 -10z"/>
<path d="M2467 2617 c-16 -5 -24 -14 -21 -22 3 -8 -4 -22 -15 -31 -15 -13 -19
-25 -14 -42 4 -18 2 -23 -8 -20 -8 3 -12 14 -10 24 3 19 3 19 -18 0 -19 -18
-22 -18 -39 -3 -12 11 -22 13 -35 6 -26 -15 -21 -34 17 -60 19 -13 42 -36 51
-51 17 -30 15 -33 -30 -40 -11 -2 -21 -11 -23 -21 -3 -12 3 -17 22 -17 14 0
26 -4 26 -10 0 -5 -7 -10 -16 -10 -9 0 -14 -7 -12 -17 2 -14 15 -19 50 -21 42
-3 48 0 62 25 l15 28 1 -37 c0 -29 -4 -38 -17 -39 -12 0 -14 -2 -5 -6 8 -3 24
-1 35 5 12 6 31 12 42 14 11 2 22 14 25 28 8 33 44 34 48 3 4 -28 13 -29 30
-3 18 29 32 25 32 -9 0 -46 18 -53 127 -48 54 3 127 10 162 15 73 12 239 57
291 79 l35 15 -35 29 c-140 119 -315 217 -420 235 -94 16 -131 16 -155 0 -31
-20 -45 -20 -45 -1 0 13 -12 15 -64 13 -34 -1 -75 -6 -89 -11z m131 -54 c32 4
56 1 67 -6 15 -12 14 -15 -9 -40 -14 -15 -29 -27 -34 -27 -23 0 -52 -39 -52
-71 0 -19 -5 -41 -10 -49 -9 -13 -12 -13 -24 3 -7 9 -18 17 -25 17 -14 0 -14
55 0 82 8 15 17 19 39 14 18 -3 33 0 40 9 18 21 5 45 -25 45 -14 0 -25 2 -25
4 0 2 -3 13 -6 23 -5 14 -4 15 4 4 7 -10 23 -12 60 -8z m-91 -33 c28 0 31 -25
4 -40 -30 -16 -41 -12 -51 16 -12 30 -3 51 13 35 6 -6 21 -11 34 -11z"/>
<path d="M1755 2610 c3 -5 11 -10 16 -10 6 0 7 5 4 10 -3 6 -11 10 -16 10 -6
0 -7 -4 -4 -10z"/>
<path d="M1716 2564 c-8 -21 -8 -24 3 -24 12 0 22 28 12 35 -5 3 -12 -2 -15
-11z"/>
<path d="M1810 2514 c0 -8 5 -12 10 -9 6 3 10 10 10 16 0 5 -4 9 -10 9 -5 0
-10 -7 -10 -16z"/>
<path d="M1860 2516 c0 -9 5 -16 10 -16 6 0 10 4 10 9 0 6 -4 13 -10 16 -5 3
-10 -1 -10 -9z"/>
<path d="M1810 2470 c15 -14 26 -18 28 -10 5 14 3 16 -28 24 l-25 7 25 -21z"/>
<path d="M1860 2454 c0 -8 5 -12 10 -9 6 3 10 10 10 16 0 5 -4 9 -10 9 -5 0
-10 -7 -10 -16z"/>
<path d="M1769 2400 c-16 -17 -15 -19 7 -31 14 -7 22 -19 19 -26 -2 -8 -1 -11
4 -8 5 3 12 1 16 -5 3 -5 10 -10 16 -10 14 0 11 26 -6 40 -22 18 -11 24 14 8
15 -9 23 -10 32 -1 8 8 4 16 -16 29 -22 15 -28 15 -35 3 -7 -11 -10 -10 -16 4
-8 21 -14 20 -35 -3z"/>
<path d="M1720 2370 c0 -5 5 -10 10 -10 6 0 10 5 10 10 0 6 -4 10 -10 10 -5 0
-10 -4 -10 -10z"/>
<path d="M2060 2020 c0 -5 5 -10 11 -10 5 0 7 5 4 10 -3 6 -8 10 -11 10 -2 0
-4 -4 -4 -10z"/>
<path d="M2090 1993 c0 -6 5 -15 10 -18 6 -3 10 -15 10 -26 0 -14 7 -19 25
-19 21 0 25 5 25 31 0 29 -2 31 -27 25 -17 -5 -29 -3 -34 6 -6 9 -9 9 -9 1z"/>
<path d="M2140 1835 c0 -8 -4 -15 -10 -15 -5 0 -10 -5 -10 -11 0 -8 5 -7 16 2
12 10 20 10 34 1 14 -9 19 -8 24 3 3 8 -3 19 -14 25 -26 14 -40 12 -40 -5z"/>
<path d="M1250 2221 c0 -12 5 -21 10 -21 6 0 10 6 10 14 0 8 -4 18 -10 21 -5
3 -10 -3 -10 -14z"/>
</g>
</svg>
